<?xml version="1.0" encoding="utf-8"?>
<!-- Generator: Adobe Illustrator 25.2.1, SVG Export Plug-In . SVG Version: 6.00 Build 0)  -->
<svg version="1.1" id="Layer_1" xmlns="http://www.w3.org/2000/svg" xmlns:xlink="http://www.w3.org/1999/xlink" x="0px" y="0px"
	 viewBox="0 0 98.9 122.9" style="enable-background:new 0 0 98.9 122.9;" xml:space="preserve">
<style type="text/css">
	.st0{fill-rule:evenodd;clip-rule:evenodd;fill:#FFFFFF;}
	.st1{fill-rule:evenodd;clip-rule:evenodd;fill:#F40407;}
</style>
<rect x="31.7" y="37.1" class="st0" width="38.4" height="47.4"/>
<path class="st1" d="M63.5,2.7c11.6-6,25.9-1.6,32,9.8s1.7,25.7-9.9,31.7l-9.5,5c8.2,0.3,16,4.8,20.1,12.5
	c6.1,11.5,1.7,25.7-9.9,31.7l-50.8,26.7c-11.6,6-25.9,1.6-32-9.8s-1.6-25.7,9.9-31.7l9.5-5c-8.2-0.3-16-4.8-20.1-12.5
	c-6.1-11.5-1.6-25.7,9.9-31.7C12.7,29.4,63.5,2.7,63.5,2.7z M36.1,42.5l30.8,19L36.1,80.4C36.1,80.4,36.1,42.5,36.1,42.5z"/>
</svg>
