<?xml version="1.0" ?><svg viewBox="0 0 96 96" xmlns="http://www.w3.org/2000/svg"><title/><path d="M82.2422,67.7578A5.9956,5.9956,0,0,0,78,66H72V62.4844l6-6,7.7578,7.7578a5.9994,5.9994,0,0,0,8.4844-8.4844l-12-12a5.9979,5.9979,0,0,0-8.4844,0L72,45.5156V42a23.7864,23.7864,0,0,0-5.915-15.6006L76.2422,16.2422a5.9994,5.9994,0,0,0-8.4844-8.4844L56.031,19.4846a22.4643,22.4643,0,0,0-16.062,0L28.2422,7.7578a5.9994,5.9994,0,0,0-8.4844,8.4844L29.915,26.3994A23.7864,23.7864,0,0,0,24,42v3.5156l-1.7578-1.7578a5.9979,5.9979,0,0,0-8.4844,0l-12,12a5.9994,5.9994,0,0,0,8.4844,8.4844L18,56.4844l6,6V66H18a5.9958,5.9958,0,0,0-4.2422,1.7578l-12,12a5.9994,5.9994,0,1,0,8.4844,8.4844L20.4844,78H27.34a23.7852,23.7852,0,0,0,41.32,0h6.8554L85.7578,88.2422a5.9994,5.9994,0,0,0,8.4844-8.4844ZM60,42H36a12,12,0,0,1,24,0ZM48,78A12.0081,12.0081,0,0,1,36,66V54H60V66A12.0081,12.0081,0,0,1,48,78Z"/></svg>