<?xml version="1.0" standalone="no"?>
<!DOCTYPE svg PUBLIC "-//W3C//DTD SVG 20010904//EN"
 "http://www.w3.org/TR/2001/REC-SVG-20010904/DTD/svg10.dtd">
<svg version="1.0" xmlns="http://www.w3.org/2000/svg"
 width="150.000000pt" height="150.000000pt" viewBox="0 0 150.000000 150.000000"
 preserveAspectRatio="xMidYMid meet">

<g transform="translate(0.000000,150.000000) scale(0.100000,-0.100000)"
fill="#FB0006" stroke="none">
<path d="M378 1480 c-122 -12 -206 -31 -241 -54 -40 -28 -85 -114 -97 -191
-23 -139 -34 -489 -22 -702 15 -255 24 -313 59 -383 33 -64 74 -95 146 -109
205 -42 853 -42 1055 0 101 21 159 100 182 249 18 115 25 642 11 801 -18 197
-34 254 -94 317 -41 42 -98 58 -260 72 -142 11 -619 11 -739 0z m622 -730 l0
-250 -250 0 -250 0 0 250 0 250 250 0 250 0 0 -250z"/>
</g>
</svg>
