<?xml version="1.0" standalone="no"?>

<svg xmlns="http://www.w3.org/2000/svg"
 width="1500" height="1500" viewBox="0 0 1500 1500">

  <path fill="#FB0006" d="M378 1480 c-122 -12 -206 -31 -241 -54 -40 -28 -85 -114 -97 -191 -23 -139 -34 -489 -22 -702 15 -255 24 -313 59 -383 33 -64 74 -95 146 -109 205 -42 853 -42 1055 0 101 21 159 100 182 249 18 115 25 642 11 801 -18 197 -34 254 -94 317 -41 42 -98 58 -260 72 -142 11 -619 11 -739 0z m622 -730 l0 -250 -250 0 -250 0 0 250 0 250 250 0 250 0 0 -250z"/>

  <path fill="#FFFFFF" d="M 500 500 h 500 v 500 h -500 z"/>

</svg>
